<svg xmlns="http://www.w3.org/2000/svg" xmlns:xlink="http://www.w3.org/1999/xlink" viewBox="0 0 887.93 576.66"><defs><style>.cls-1{fill:none;}.cls-2{clip-path:url(#clip-path);}.cls-3{fill:url(#linear-gradient);}.cls-4{clip-path:url(#clip-path-2);}.cls-5{fill:url(#linear-gradient-2);}</style><clipPath id="clip-path" transform="translate(0 0)"><path class="cls-1" d="M565,18.62A222.58,222.58,0,0,0,489.47,74.2q-7.92,8.85-15,18.55a331.31,331.31,0,0,1,25.95,57.13c34.92-66.41,94.73-97.65,151.73-97.65,47.33,0,91.6,20.28,124.66,57.1,29,32.25,47.65,75.3,55.15,126.28h0a363.5,363.5,0,0,1,3.68,52.53c0,74.41-20.28,136.31-58.62,179-33.17,36.94-77.53,57.28-124.92,57.28-47,0-91-20.34-124-57.28C490.13,424.43,470,362.51,470,288.05c0-86.72-24.86-160-71.91-211.9a223,223,0,0,0-75.61-54.86,216.08,216.08,0,0,0-174.46,0A224.45,224.45,0,0,0,72.21,76.19C25,128.1,0,201.18,0,287.53V530.94H0a1.7,1.7,0,0,0,0,.22v15.33a24.25,24.25,0,0,0,24.25,24.25H28a24.25,24.25,0,0,0,24.25-24.25V530.94h0V287.53c0-71.41,19.6-131.42,56.67-173.53,32.92-37.39,79-58.84,126.46-58.84,47.22,0,91.27,19.91,124,56.07,38.19,42.14,58.38,103.29,58.38,176.82,0,87.78,24.79,161.92,71.68,214.41A222.72,222.72,0,0,0,565,558a213.74,213.74,0,0,0,174.75-.11,225,225,0,0,0,76-55.71c47.23-52.6,72.21-126.6,72.24-214h0v-.17h0c0-87.39-25-161.39-72.24-214a224.84,224.84,0,0,0-76-55.71A214.06,214.06,0,0,0,678,1.19v.38A213.44,213.44,0,0,0,565,18.62"/></clipPath><linearGradient id="linear-gradient" x1="-516.02" y1="823.18" x2="-515.02" y2="823.18" gradientTransform="matrix(882, 0, 0, -882, 455125.13, 726331.52)" gradientUnits="userSpaceOnUse"><stop offset="0" stop-color="#7caeed"/><stop offset="1" stop-color="#ff81dc"/></linearGradient><clipPath id="clip-path-2" transform="translate(0 0)"><path class="cls-1" d="M203.24,321.12A32.65,32.65,0,1,0,235.68,285a32.69,32.69,0,0,0-32.44,36.16"/></clipPath><linearGradient id="linear-gradient-2" x1="-516.02" y1="823.18" x2="-515.02" y2="823.18" gradientTransform="matrix(1134.55, 0, 0, -1134.55, 585398.64, 934258.89)" xlink:href="#linear-gradient"/></defs><g id="Layer_2" data-name="Layer 2"><g id="Layer_1-2" data-name="Layer 1"><g class="cls-2"><rect class="cls-3" width="887.93" height="576.66"/></g><g class="cls-4"><rect class="cls-5" x="201.17" y="284.96" width="69.14" height="67.26"/></g></g></g></svg>