<?xml version="1.0" encoding="utf-8"?>
<!-- Generator: Adobe Illustrator 25.0.0, SVG Export Plug-In . SVG Version: 6.00 Build 0)  -->
<svg version="1.1" id="Layer_1" xmlns="http://www.w3.org/2000/svg" xmlns:xlink="http://www.w3.org/1999/xlink" x="0px" y="0px"
	 viewBox="0 0 887.9 576.7" style="enable-background:new 0 0 887.9 576.7;" xml:space="preserve">
<style type="text/css">
	.st0{clip-path:url(#SVGID_2_);}
	.st1{clip-path:url(#SVGID_4_);}
</style>
<g id="Layer_2_1_">
	<g id="Layer_1-2">
		<g>
			<defs>
				<path id="SVGID_1_" d="M565,18.6c-28.8,13-54.6,31.9-75.5,55.6c-5.3,5.9-10.3,12.1-15,18.6c10.4,18.2,19.1,37.3,26,57.1
					c34.9-66.4,94.7-97.7,151.7-97.7c47.3,0,91.6,20.3,124.7,57.1c29,32.2,47.7,75.3,55.2,126.3l0,0c2.5,17.4,3.7,35,3.7,52.5
					c0,74.4-20.3,136.3-58.6,179c-33.2,36.9-77.5,57.3-124.9,57.3c-47,0-91-20.3-124-57.3C490.1,424.4,470,362.5,470,288
					c0-86.7-24.9-160-71.9-211.9c-21-23.4-46.8-42.1-75.6-54.9C266.9-3.2,203.6-3.2,148,21.3c-28.8,12.8-54.7,31.5-75.8,54.9
					C25,128.1,0,201.2,0,287.5v243.4l0,0c0,0.1,0,0.1,0,0.2v15.3c0,13.4,10.9,24.2,24.2,24.2H28c13.4,0,24.2-10.9,24.2-24.2v-15.5
					l0,0V287.5c0-71.4,19.6-131.4,56.7-173.5c32.9-37.4,79-58.8,126.5-58.8c47.2,0,91.3,19.9,124,56.1
					c38.2,42.1,58.4,103.3,58.4,176.8c0,87.8,24.8,161.9,71.7,214.4c21,23.7,46.7,42.6,75.6,55.5c55.6,24.9,119.2,24.8,174.8-0.1
					c29-13,54.9-32,76-55.7c47.2-52.6,72.2-126.6,72.2-214l0,0V288l0,0c0-87.4-25-161.4-72.2-214c-21.1-23.7-47-42.7-76-55.7
					C720.1,9.5,699.3,3.8,678,1.2v0.4C639.5-3.1,600.4,2.8,565,18.6"/>
			</defs>
			<use xlink:href="#SVGID_1_"  style="overflow:visible;"/>
			<clipPath id="SVGID_2_">
				<use xlink:href="#SVGID_1_"  style="overflow:visible;"/>
			</clipPath>
			<g class="st0">
				<rect width="887.9" height="576.7"/>
			</g>
		</g>
		<g>
			<defs>
				<path id="SVGID_3_" d="M203.2,321.1c1.9,17.9,18,30.9,35.9,29c17.9-1.9,30.9-18,29-35.9c-1.8-16.6-15.8-29.2-32.5-29.2
					c-18.1,0-32.7,14.7-32.6,32.8C203.1,318.9,203.1,320,203.2,321.1"/>
			</defs>
			<use xlink:href="#SVGID_3_"  style="overflow:visible;"/>
			<clipPath id="SVGID_4_">
				<use xlink:href="#SVGID_3_"  style="overflow:visible;"/>
			</clipPath>
			<g class="st1">
				<rect x="201.2" y="285" width="69.1" height="67.3"/>
			</g>
		</g>
	</g>
</g>
</svg>
